<?xml version="1.0" encoding="utf-8"?>
<!-- Generator: Adobe Illustrator 17.0.0, SVG Export Plug-In . SVG Version: 6.00 Build 0)  -->
<!DOCTYPE svg PUBLIC "-//W3C//DTD SVG 1.1//EN" "http://www.w3.org/Graphics/SVG/1.1/DTD/svg11.dtd">
<svg version="1.1" id="Layer_1" xmlns="http://www.w3.org/2000/svg" xmlns:xlink="http://www.w3.org/1999/xlink" x="0px" y="0px"
	 width="312.161px" height="175.116px" viewBox="0 0 312.161 175.116" enable-background="new 0 0 312.161 175.116"
	 xml:space="preserve">
<g>
	<path fill="#FFFFFF" d="M81.773,81.216c2.48-8.469,6.045-17.169,10.456-28.51c1.057-2.749,2.624-6.722,4.4-11.746
		c1.676-5.07,3.956-11.02,4.492-18.704l0.6-8.532l-5.956,6.224c-5.13,5.359-10.253,11.733-14.965,18.753
		c-4.727,7.016-9.063,14.641-13.1,22.292c-4.182,8.002-8.191,15.953-12.105,23.362c0.021-0.081,0.049-0.173,0.072-0.254l2.362-8.137
		c-0.028-0.014,1.709-5.532,4.129-14.747c1.178-4.617,2.523-10.168,3.443-16.534c0.892-6.35,1.452-13.608-0.01-21.302l-0.984-5.178
		l-3.991,3.335c-2.527,2.108-3.971,4.343-5.5,6.61c-1.466,2.267-2.795,4.593-4.069,6.946c-2.548,4.71-4.902,9.531-7.214,14.349
		c-4.616,9.637-9.034,19.244-13.434,27.948c-4.395,8.677-8.738,16.553-13.093,22.236c-1.005,1.312-2.027,2.497-3.025,3.503
		c-1.387,1.881-3.098,3.506-5.376,3.483c-2.695-0.027-4.298-2.742-5.155-5.561c-1.324-2.891-1.805-6.256-1.908-9.704
		c-0.344-3.48-0.173-7.064,0.299-10.463c0.009-0.175,0.014-0.348,0.022-0.519c-0.796,3.691-1.484,7.528-1.885,11.746
		c-0.234,2.6-0.379,5.325-0.189,8.311c0.099,1.498,0.282,3.048,0.713,4.723c0.447,1.646,1.08,3.529,2.78,5.315
		c0.526,0.552,1.251,1.085,2.098,1.508l0.668,0.272l0.088,0.032l0.045,0.019l0.404,0.103l0.102,0.024l0.211,0.042l0.435,0.084
		l0.805,0.078c2.135,0.11,3.937-0.493,5.587-1.405c3.234-1.847,5.749-4.629,8.202-7.765c4.839-6.323,9.249-14.394,13.732-23.227
		c4.473-8.841,8.912-18.495,13.49-28.062c2.297-4.778,4.62-9.545,7.07-14.078c1.179-2.182,2.399-4.304,3.672-6.291
		c0.119,4.137-0.203,8.212-0.735,11.995c-0.864,5.987-2.154,11.364-3.302,15.864c-2.357,8.997-4.097,14.552-4.066,14.557
		l-2.375,8.164c-1.449,5.207-3.682,12.576-5.176,21.796l-2.407,14.794l8.102-12.648c7.549-11.79,15.051-27.258,22.969-42.384
		c3.99-7.554,8.214-14.971,12.767-21.723c2.16-3.218,4.401-6.267,6.681-9.141c-0.626,2.045-1.278,4.021-1.883,5.811
		c-1.715,4.872-3.267,8.834-4.308,11.582C82.092,61.811,78.919,71.03,77.344,80.2c-0.763,4.578-1.152,9.164-0.679,13.868
		c0.357,3.418,1.288,6.995,3.132,10.157c-0.036-0.967-0.03-1.902,0.005-2.792c-0.546-2.516-0.653-5.03-0.511-7.432
		C79.582,89.62,80.556,85.449,81.773,81.216z"/>
	<path fill="#FFFFFF" d="M179.686,90.625c-0.17-3.872-0.809-7.614-1.163-11.256c-0.179-1.823-0.291-3.64-0.283-5.443l0.071-2.803
		c0.018-0.355,0.089-0.703,0.129-1.059c2.124-3.225,4.155-6.508,6.199-9.715l5.556-8.727l-9.408,4.155
		c-2.529,1.116-4.477,3.047-5.752,5.119c-1.315,2.079-2.109,4.314-2.551,6.563c-0.024,0.107-0.018,0.217-0.038,0.326
		c-3.149,4.69-6.415,9.079-10.065,12.672c-1.561,1.526-3.264,2.909-4.86,3.849c-1.036,0.599-1.876,1.062-2.781,1.502
		c-0.215,0.107-0.439,0.209-0.657,0.299c0.037-0.173,0.073-0.351,0.115-0.521c0.439-1.788,1.071-3.693,1.623-5.568
		c0.274-0.943,0.539-1.898,0.773-2.86l0.337-1.519l0.226-1.366c0.271-1.814,0.49-3.554,0.524-5.348
		c0.024-0.89-0.008-1.806-0.173-2.829c-0.232-0.982-0.321-2.281-1.963-3.776c-0.849-0.715-2.078-1.026-2.946-0.978
		c-0.914,0.032-1.468,0.257-2.003,0.456c-0.99,0.418-1.61,0.873-2.174,1.288c-2.151,1.689-3.293,3.064-4.168,4.001l-1.255,1.447
		c0,0.004-0.821,0.95-2.193,2.684c1.384-3.517,2.585-7.445,2.629-11.937l0.053-5.351l-4.676,2.62
		c-4.197,2.351-8.571,4.568-13.126,6.075c-0.274,0.094-0.55,0.173-0.829,0.257c-0.871-0.946-1.805-1.772-2.8-2.424
		c-2.632-1.638-5.349-2.698-8.645-2.997c-0.85-0.05-1.736-0.069-2.87,0.194c-0.538,0.119-1.249,0.368-1.986,0.887
		c-0.77,0.546-1.585,1.63-1.746,2.804c-0.032,0.196,0.003,0.345-0.003,0.526c-0.089,0.045-0.178,0.082-0.265,0.126
		c-2.136,1.089-4.09,2.382-5.915,3.778c-3.647,2.812-6.824,6.007-9.633,9.723c-2.748,3.744-5.339,7.963-6.485,13.561
		c-0.168,0.919-0.259,1.924-0.288,2.95c-0.009-0.028-0.011-0.06-0.021-0.088c-0.001,0.659,0.013,1.331,0.054,2.018
		c0.008,0.012,0.012,0.023,0.02,0.034c0.14,1.472,0.47,2.987,1.176,4.489c1.329,2.872,4.308,6.136,8.263,7.046
		c2.428,0.641,5.614,0.5,8.735-0.586c3.149-1.067,6.339-2.914,9.431-5.38c3.092-2.467,6.114-5.546,8.858-9.239
		c2.709-3.717,5.258-8.004,6.646-13.271c0.639-2.562,0.97-5.447,0.34-8.499c3.054-1.019,5.918-2.283,8.656-3.642
		c-0.787,2.883-2.021,5.742-3.244,8.556c-2.027,4.629-4.013,9.383-4.603,14.209l-1.049,8.627l6.172-5.894
		c1.707-1.63,2.509-2.827,3.535-4.104l2.635-3.506l4.188-5.581c2.325-3.041,3.703-4.63,3.701-4.63l1.146-1.32
		c0.618-0.68,1.538-1.693,2.617-2.627c0,0.066,0.006,0.12,0.003,0.186c-0.024,1.319-0.208,2.873-0.457,4.504l-0.206,1.242
		l-0.254,1.132c-0.195,0.812-0.435,1.667-0.698,2.554c-0.524,1.79-1.157,3.667-1.704,5.878c-0.247,1.154-0.566,2.263-0.478,4.083
		c0.073,0.83,0.266,2.373,1.778,3.629c1.531,1.152,2.988,1.047,3.845,0.961c1.788-0.259,2.92-0.808,4.088-1.332
		c1.107-0.535,2.249-1.174,3.196-1.715c2.349-1.389,4.273-3.01,6.124-4.795c1.966-1.951,3.784-4.039,5.51-6.212
		c0.031,0.415,0.053,0.835,0.092,1.244c0.389,3.94,0.999,7.57,1.141,10.922c0.168,3.35-0.158,6.449-0.97,9.351
		c-0.383,1.401-0.942,2.938-1.434,4.081c-0.345,0.753-0.668,1.391-0.962,1.942c-0.333,0.607-0.674,1.21-1.036,1.779
		c-1.43,2.298-3.058,4.265-4.694,5.924c-3.284,3.326-6.561,5.397-8.86,6.7c-9.838,5.359-19.028,6.541-27.286,5.709
		c-8.24-0.975-16.231-4.317-22.738-12.087c4.794,8.908,12.825,14.446,21.949,16.584c9.129,2.041,19.803,1.328,31.079-4.766
		c2.648-1.487,6.415-3.855,10.269-7.734c3.83-3.931,7.751-9.217,9.72-16.462C179.492,98.412,179.887,94.48,179.686,90.625z
		 M121.34,75.492c-1.046,4.036-3.226,7.844-5.605,11.069c-2.399,3.243-5.081,5.973-7.724,8.081c-2.639,2.118-5.271,3.604-7.53,4.363
		c-2.279,0.783-4.089,0.765-5.264,0.467c-0.958-0.237-1.775-0.676-2.501-1.328c-0.372-0.306-0.707-0.728-0.963-1.022
		c-0.421-0.581-0.65-0.903-0.854-1.327c-0.847-1.633-0.995-3.721-0.726-5.814c0.6-4.232,2.488-8.28,4.595-11.943
		c2.157-3.677,4.66-7.094,7.615-10.306c1.395-1.502,2.911-2.948,4.589-4.282c0.047,0.155,0.077,0.343,0.126,0.473
		c0.119,0.275,0.25,0.628,0.381,0.828l0.199,0.341l0.102,0.173l0.049,0.085l0.218,0.304l0.618,0.761
		c0.352,0.374,0.734,0.759,1.11,1.091c2.889,2.435,6.52,2.908,9.466,2.77c0.826-0.044,1.631-0.133,2.418-0.252
		C121.974,71.681,121.822,73.602,121.34,75.492z"/>
	<path fill="#FFFFFF" d="M207.101,38.973c0.809-0.063,1.315-0.102,1.315-0.102l22.095-1.757c3.373-0.264,5.196-1.433,7.986-3.508
		c-2.908-1.898-4.953-2.873-8.39-2.697c-3.408,0.132-18.776,1.499-21.649,1.722l1.679-7.844c2.074-10.059,2.228-15.98,2.074-24.787
		c-3.714,7.978-5.959,13.462-8.132,23.494l-2.048,9.548l-3.701,0.235c-5.032,0.286-10.493,0.345-12.3,0.341
		c-3.356,0.012-5.203,1.015-8.207,2.804c2.68,2.173,4.705,3.336,8.165,3.414c1.888,0.06,7.535-0.005,12.661-0.305
		c0.686-0.037,1.356-0.074,2.011-0.116l-4.474,20.797l-6.392,28.497l-2.028,8.624l-1.017,4.25l-0.558,2.444l-0.521,2.491
		l-2.221,10.808c-3.025,14.998-6.799,31.18-8.251,36.481c-1.282,4.922-2.128,8.794-2.816,12.508
		c-0.753,3.706-1.113,7.286-2.484,11.437c3.101-3.174,5.024-6.51,6.785-9.981c1.728-3.511,3.148-7.365,4.497-12.369
		c1.539-5.412,5.351-21.779,8.37-36.812l2.21-10.8l0.513-2.479l0.512-2.263l1.017-4.273l2.02-8.658l6.444-28.562L207.101,38.973z"/>
	<path fill="#FFFFFF" d="M309.97,89.785c-2.066,1.542-4.048,2.304-6.152,3.108l-0.929,0.356c-2.273,0.838-4.851,1.76-8.312,2.842
		c-1.42,0.435-5.195,1.591-9.844,2.042c-1.102,0.107-2.189,0.161-3.236,0.161c-2.833,0-6.646-0.408-9.188-2.28
		c1.257-0.428,2.544-0.959,3.901-1.603c1.381-0.667,2.686-1.361,3.993-2.123l1.342-0.822l1.543-1.2
		c0.872-0.77,1.744-1.63,2.662-2.634c2.054-2.264,3.678-4.456,4.978-6.712c0.724-1.288,1.455-2.727,1.889-4.532
		c0.181-0.787,0.371-1.853,0.202-3.094c-0.158-1.318-0.802-2.638-1.737-3.541c-1.915-1.757-3.954-1.936-5.584-2.076l-1.035-0.024
		l-0.222,0.013c-0.326,0.012-0.698,0.03-1.205,0.116c-0.911,0.138-1.586,0.337-2.4,0.622c-2.899,1.084-4.986,2.705-6.493,4.005
		c-2.422,2.143-3.862,3.995-4.411,4.719h-0.098c-0.21,0.318-0.426,0.634-0.664,0.937l0.036,0.031
		c-0.641,0.883-1.862,2.663-3.087,5.285c-0.825,1.829-1.791,4.327-1.955,7.422c-0.061,0.714-0.011,1.484,0.156,2.383
		c-0.543,0.164-1.131,0.311-1.721,0.389c-0.234,0.027-0.473,0.043-0.72,0.043c-0.984,0-1.676-0.273-2.238-0.892l-2.36-2.577
		l0.964,3.366c0.555,1.939,2.467,3.059,4.073,3.462c1.097,0.279,2.31,0.386,3.602,0.337c0.689,1.163,1.441,2.073,2.271,2.761
		c2.249,1.958,5.25,3.231,8.917,3.785c1.449,0.217,2.99,0.326,4.566,0.326c1.218,0,2.467-0.062,3.816-0.191
		c4.82-0.474,8.606-1.545,11.034-2.313c3.422-1.104,6.207-2.455,8.773-4.26c2.083-1.521,4.435-3.488,6.09-6.582l1.749-3.273
		L309.97,89.785z M271.232,85.832c1.156-2.495,2.358-4.108,2.756-4.64c0.035-0.047,0.083-0.112,0.131-0.186
		c0.053-0.062,0.101-0.126,0.15-0.191c0.4-0.527,1.61-2.128,3.704-3.969c1.573-1.374,3.137-2.354,4.645-2.908
		c0.415-0.15,0.92-0.286,1.311-0.347c0.003,0,0.143-0.033,0.613-0.049l0.152-0.009l0.513,0.021c0.945,0.031,1.636,0.29,1.767,0.385
		c0,0.002,0.132,0.291-0.067,1.098c-0.19,0.818-0.619,1.815-1.274,2.964c-1.057,1.845-2.472,3.744-4.203,5.649
		c-0.764,0.833-1.504,1.567-2.183,2.166l-0.499,0.422l-1.511,0.978c-1.494,0.876-2.759,1.517-3.574,1.921
		c-1.466,0.714-2.715,1.302-3.845,1.811C269.908,89.403,270.397,87.637,271.232,85.832z"/>
	<path fill="#FFFFFF" d="M269.304,63.495l7.351-4.99c2.214-1.511,4.347-3.061,7.105-4.781c-3.241-0.164-6.029,0.011-8.87,0.676
		c-2.831,0.682-5.744,1.859-9.021,4.071c-1.278,0.865-3.462,2.468-5.903,4.749l4.881-14.979L254.611,60.61
		c-0.854,1.035-1.675,2.375-2.42,3.893c-1.209,1.107-2.715,1.773-4.37,2.228c-1.167,0.296-2.415,0.503-3.783,0.54
		c-0.663-1.978-1.596-3.755-2.701-5.587c-0.865-0.815-1.761-1.535-2.714-2.091c-2.709-1.501-5.478-2.419-8.784-2.55
		c-0.854-0.005-1.736,0.021-2.861,0.343c-0.525,0.146-1.222,0.429-1.932,0.987c-0.739,0.584-1.5,1.708-1.602,2.889
		c-0.018,0.198,0.022,0.346,0.024,0.527c-0.085,0.047-0.176,0.09-0.259,0.137c-2.081,1.197-3.963,2.59-5.715,4.076
		c-3.496,2.994-6.506,6.351-9.125,10.207c-1.666,2.528-3.244,5.264-4.386,8.421c-2.075,4.786-2.719,10.072-0.205,14.325
		c0.073,0.157,0.136,0.316,0.218,0.47c1.474,2.801,4.618,5.909,8.617,6.613c2.454,0.517,5.629,0.211,8.692-1.034
		c3.092-1.225,6.183-3.233,9.142-5.855c2.965-2.623,5.827-5.852,8.378-9.683c2.517-3.848,4.845-8.26,5.966-13.592
		c0.326-1.678,0.505-3.493,0.38-5.378c0.9,0.33,1.837,0.575,2.831,0.701c0.569,0.066,1.163,0.078,1.771,0.056
		c-0.491,1.829-0.916,3.697-1.369,5.533c-0.318,1.287-0.694,2.629-1.081,3.965c-4.985,10.234-6.826,20.182-6.89,20.14l-0.485,2.188
		l5.873,1.519c0.545-1.798,1.485-4.659,2.699-8.113c1.202-3.455,2.678-7.511,4.001-11.771c0.183-0.596,0.348-1.18,0.523-1.769
		c2.344-4.751,5.447-9.316,8.572-12.7C264.727,66.828,267.762,64.565,269.304,63.495z M238.673,74.646
		c-0.842,4.084-2.822,8-5.035,11.344c-2.233,3.362-4.771,6.223-7.307,8.465c-2.525,2.252-5.078,3.867-7.299,4.743
		c-2.23,0.899-4.037,0.975-5.229,0.737c-0.97-0.19-1.809-0.582-2.567-1.197c-0.387-0.287-0.747-0.692-1.012-0.971
		c-0.45-0.559-0.697-0.871-0.924-1.281c-0.927-1.588-1.174-3.667-1.015-5.771c0.379-4.257,2.058-8.397,3.977-12.163
		c1.968-3.781,4.295-7.326,7.087-10.685c1.311-1.571,2.756-3.092,4.362-4.51c0.052,0.15,0.093,0.337,0.154,0.463
		c0.125,0.27,0.278,0.616,0.418,0.806l0.216,0.334l0.11,0.166l0.054,0.081l0.239,0.293l0.651,0.728
		c0.376,0.356,0.772,0.72,1.166,1.032c3.009,2.284,6.656,2.571,9.592,2.279c0.821-0.085,1.621-0.215,2.402-0.374
		C239.115,70.807,239.059,72.733,238.673,74.646z"/>
</g>
</svg>
