<?xml version="1.0" encoding="utf-8"?>
<!-- Generator: Adobe Illustrator 17.0.0, SVG Export Plug-In . SVG Version: 6.00 Build 0)  -->
<!DOCTYPE svg PUBLIC "-//W3C//DTD SVG 1.1//EN" "http://www.w3.org/Graphics/SVG/1.1/DTD/svg11.dtd">
<svg version="1.1" id="Layer_1" xmlns="http://www.w3.org/2000/svg" xmlns:xlink="http://www.w3.org/1999/xlink" x="0px" y="0px"
	 width="312.161px" height="175.116px" viewBox="0 0 312.161 175.116" enable-background="new 0 0 312.161 175.116"
	 xml:space="preserve">
<g>
	<g>
		<defs>
			<rect id="SVGID_1_" x="0" y="0" width="312.161" height="175.116"/>
		</defs>
		<clipPath id="SVGID_2_">
			<use xlink:href="#SVGID_1_"  overflow="visible"/>
		</clipPath>
		<g clip-path="url(#SVGID_2_)">
			<defs>
				<rect id="SVGID_3_" x="0" y="0" width="312.161" height="175.116"/>
			</defs>
			<clipPath id="SVGID_4_">
				<use xlink:href="#SVGID_3_"  overflow="visible"/>
			</clipPath>
			<path clip-path="url(#SVGID_4_)" d="M83.497,80.652c2.413-8.203,5.884-16.63,10.176-27.614c1.029-2.662,2.554-6.511,4.283-11.378
				c1.63-4.91,3.849-10.673,4.371-18.115l0.583-8.265l-5.796,6.029c-4.993,5.192-9.98,11.364-14.565,18.165
				c-4.6,6.795-8.819,14.18-12.749,21.592c-4.069,7.75-7.971,15.451-11.781,22.628c0.02-0.078,0.047-0.168,0.071-0.246l2.298-7.882
				c-0.028-0.012,1.663-5.358,4.018-14.284c1.147-4.472,2.455-9.848,3.351-16.015c0.869-6.149,1.414-13.18-0.009-20.632
				l-0.958-5.016l-3.884,3.23c-2.459,2.041-3.865,4.208-5.352,6.403c-1.428,2.194-2.721,4.448-3.96,6.727
				c-2.479,4.562-4.77,9.232-7.021,13.898c-4.492,9.335-8.792,18.639-13.074,27.07c-4.279,8.404-8.505,16.034-12.742,21.537
				c-0.978,1.272-1.974,2.419-2.945,3.394c-1.35,1.821-3.015,3.395-5.231,3.372c-2.623-0.026-4.183-2.655-5.017-5.385
				c-1.288-2.8-1.757-6.06-1.856-9.399c-0.336-3.372-0.169-6.842,0.29-10.134c0.009-0.169,0.015-0.337,0.021-0.502
				c-0.775,3.575-1.444,7.291-1.835,11.376c-0.228,2.518-0.369,5.158-0.184,8.051c0.095,1.45,0.274,2.952,0.693,4.574
				c0.435,1.594,1.052,3.418,2.706,5.148c0.512,0.535,1.218,1.05,2.041,1.461l0.65,0.263l0.086,0.031l0.043,0.019l0.393,0.099
				l0.101,0.024l0.205,0.04L11.342,111l0.783,0.075c2.078,0.106,3.832-0.477,5.438-1.36c3.148-1.789,5.595-4.484,7.983-7.522
				c4.71-6.124,9.001-13.941,13.364-22.498c4.354-8.563,8.673-17.914,13.129-27.18c2.236-4.628,4.496-9.245,6.881-13.635
				c1.147-2.114,2.334-4.169,3.572-6.094c0.117,4.007-0.197,7.954-0.714,11.619c-0.841,5.799-2.096,11.007-3.214,15.366
				c-2.294,8.713-3.989,14.095-3.958,14.1l-2.311,7.907c-1.41,5.043-3.583,12.181-5.037,21.112l-2.342,14.33l7.885-12.252
				c7.346-11.418,14.648-26.402,22.354-41.052c3.883-7.317,7.993-14.5,12.424-21.04c2.102-3.117,4.284-6.07,6.503-8.854
				c-0.61,1.981-1.244,3.896-1.833,5.63c-1.669,4.719-3.18,8.556-4.193,11.218c-4.246,10.99-7.334,19.919-8.866,28.801
				c-0.743,4.433-1.121,8.876-0.661,13.432c0.348,3.309,1.253,6.774,3.047,9.837c-0.035-0.937-0.028-1.843,0.005-2.705
				c-0.532-2.436-0.635-4.872-0.498-7.198C81.366,88.794,82.313,84.753,83.497,80.652"/>
			<path clip-path="url(#SVGID_4_)" d="M178.786,89.767c-0.165-3.751-0.787-7.376-1.132-10.904
				c-0.175-1.765-0.283-3.525-0.275-5.271l0.07-2.715c0.016-0.344,0.086-0.681,0.125-1.026c2.067-3.124,4.044-6.304,6.034-9.409
				l5.407-8.453l-9.155,4.024c-2.462,1.081-4.358,2.952-5.598,4.958c-1.281,2.013-2.053,4.178-2.483,6.358
				c-0.024,0.103-0.017,0.21-0.036,0.314c-3.066,4.543-6.243,8.794-9.796,12.275c-1.519,1.477-3.177,2.818-4.73,3.727
				c-1.009,0.58-1.826,1.03-2.707,1.456c-0.21,0.103-0.427,0.201-0.639,0.289c0.036-0.168,0.071-0.34,0.113-0.505
				c0.427-1.731,1.042-3.576,1.579-5.392c0.267-0.915,0.524-1.839,0.752-2.771l0.328-1.471l0.22-1.323
				c0.263-1.758,0.477-3.442,0.509-5.181c0.024-0.862-0.007-1.75-0.168-2.74c-0.226-0.951-0.312-2.209-1.91-3.657
				c-0.827-0.693-2.023-0.994-2.867-0.948c-0.89,0.031-1.429,0.25-1.95,0.442c-0.963,0.406-1.566,0.846-2.115,1.248
				c-2.094,1.636-3.204,2.968-4.057,3.874l-1.221,1.402c0,0.004-0.799,0.921-2.134,2.6c1.347-3.407,2.515-7.21,2.558-11.562
				l0.051-5.184l-4.55,2.538c-4.085,2.276-8.343,4.424-12.776,5.885c-0.266,0.091-0.536,0.168-0.806,0.248
				c-0.849-0.917-1.757-1.718-2.725-2.348c-2.561-1.587-5.205-2.613-8.414-2.904c-0.826-0.048-1.688-0.067-2.792,0.188
				c-0.524,0.115-1.215,0.356-1.933,0.86c-0.749,0.528-1.543,1.578-1.7,2.715c-0.031,0.189,0.004,0.333-0.003,0.509
				c-0.086,0.043-0.173,0.079-0.258,0.122c-2.079,1.054-3.981,2.307-5.756,3.66c-3.548,2.724-6.641,5.818-9.375,9.417
				c-2.674,3.627-5.195,7.714-6.311,13.136c-0.164,0.89-0.251,1.863-0.279,2.858c-0.009-0.028-0.012-0.058-0.021-0.086
				c-0.001,0.639,0.013,1.289,0.052,1.954c0.008,0.012,0.012,0.023,0.02,0.034c0.136,1.425,0.458,2.893,1.144,4.347
				c1.293,2.781,4.193,5.944,8.042,6.825c2.362,0.62,5.463,0.483,8.501-0.568c3.065-1.033,6.17-2.822,9.178-5.211
				c3.01-2.389,5.951-5.372,8.621-8.948c2.636-3.601,5.117-7.752,6.468-12.854c0.622-2.482,0.944-5.275,0.33-8.232
				c2.972-0.986,5.76-2.212,8.424-3.527c-0.765,2.792-1.966,5.563-3.157,8.287c-1.973,4.483-3.905,9.088-4.479,13.763l-1.021,8.356
				l6.007-5.709c1.661-1.579,2.442-2.738,3.439-3.975l2.565-3.396l4.076-5.405c2.263-2.945,3.605-4.484,3.602-4.484l1.115-1.279
				c0.602-0.658,1.497-1.64,2.548-2.545c0,0.064,0.005,0.117,0.003,0.181c-0.023,1.277-0.201,2.781-0.445,4.362l-0.201,1.203
				l-0.247,1.097c-0.189,0.786-0.423,1.614-0.68,2.474c-0.509,1.734-1.125,3.551-1.657,5.693c-0.242,1.117-0.552,2.192-0.466,3.955
				c0.071,0.804,0.259,2.298,1.73,3.516c1.491,1.116,2.908,1.014,3.743,0.931c1.739-0.25,2.84-0.783,3.978-1.291
				c1.077-0.518,2.188-1.137,3.11-1.661c2.286-1.346,4.159-2.916,5.959-4.644c1.914-1.888,3.684-3.912,5.364-6.017
				c0.03,0.403,0.051,0.808,0.089,1.205c0.379,3.817,0.972,7.333,1.111,10.58c0.164,3.245-0.153,6.246-0.944,9.057
				c-0.372,1.358-0.917,2.846-1.395,3.952c-0.336,0.729-0.65,1.347-0.936,1.882c-0.325,0.587-0.657,1.172-1.009,1.723
				c-1.391,2.225-2.976,4.131-4.569,5.737c-3.196,3.222-6.386,5.228-8.622,6.489c-9.575,5.192-18.518,6.336-26.555,5.529
				c-8.019-0.944-15.796-4.181-22.13-11.707c4.665,8.629,12.482,13.992,21.361,16.063c8.884,1.976,19.272,1.287,30.245-4.617
				c2.577-1.44,6.243-3.733,9.994-7.491c3.727-3.807,7.543-8.927,9.459-15.945C178.597,97.309,178.981,93.5,178.786,89.767
				 M122.004,75.108c-1.018,3.909-3.14,7.597-5.455,10.721c-2.334,3.143-4.945,5.787-7.517,7.828
				c-2.568,2.051-5.13,3.492-7.329,4.225c-2.217,0.759-3.979,0.741-5.122,0.453c-0.933-0.228-1.727-0.654-2.435-1.287
				c-0.361-0.295-0.688-0.705-0.936-0.99c-0.411-0.563-0.633-0.874-0.833-1.285c-0.823-1.582-0.967-3.605-0.706-5.631
				c0.584-4.1,2.421-8.02,4.472-11.568c2.099-3.562,4.535-6.871,7.411-9.982c1.358-1.454,2.834-2.855,4.467-4.147
				c0.046,0.15,0.075,0.332,0.122,0.458c0.117,0.266,0.243,0.608,0.371,0.802l0.193,0.33l0.099,0.168l0.048,0.082l0.212,0.294
				l0.602,0.737c0.342,0.361,0.714,0.735,1.081,1.056c2.811,2.358,6.344,2.816,9.211,2.683c0.804-0.043,1.587-0.129,2.353-0.244
				C122.621,71.416,122.473,73.278,122.004,75.108"/>
			<path clip-path="url(#SVGID_4_)" d="M205.466,39.736c0.787-0.06,1.28-0.099,1.28-0.099l21.504-1.702
				c3.282-0.255,5.056-1.387,7.772-3.398c-2.83-1.837-4.82-2.783-8.165-2.612c-3.317,0.128-18.274,1.452-21.07,1.668l1.634-7.597
				c2.018-9.743,2.168-15.479,2.018-24.008c-3.614,7.727-5.799,13.039-7.913,22.755l-1.994,9.248l-3.601,0.228
				c-4.898,0.277-10.212,0.334-11.971,0.33c-3.265,0.011-5.063,0.983-7.987,2.715c2.609,2.106,4.578,3.231,7.946,3.308
				c1.837,0.058,7.333-0.005,12.322-0.297c0.667-0.035,1.319-0.071,1.957-0.113l-4.354,20.145l-6.221,27.602l-1.974,8.353
				l-0.99,4.116l-0.543,2.368l-0.508,2.413l-2.162,10.468c-2.944,14.527-6.616,30.201-8.03,35.335
				c-1.248,4.768-2.071,8.518-2.741,12.116c-0.733,3.59-1.084,7.057-2.417,11.078c3.018-3.074,4.89-6.307,6.603-9.667
				c1.681-3.402,3.063-7.134,4.377-11.981c1.497-5.243,5.208-21.095,8.145-35.656l2.151-10.46l0.5-2.401l0.498-2.192l0.99-4.139
				l1.966-8.386l6.272-27.665L205.466,39.736z"/>
			<path clip-path="url(#SVGID_4_)" d="M305.578,88.953c-2.01,1.492-3.939,2.231-5.987,3.01l-0.904,0.345
				c-2.212,0.812-4.721,1.706-8.089,2.753c-1.382,0.42-5.056,1.54-9.581,1.978c-1.073,0.103-2.13,0.156-3.149,0.156
				c-2.756,0-6.468-0.395-8.941-2.209c1.223-0.414,2.476-0.928,3.797-1.552c1.344-0.646,2.615-1.317,3.887-2.056l1.307-0.796
				l1.501-1.162c0.849-0.745,1.696-1.579,2.591-2.552c1.998-2.192,3.579-4.316,4.844-6.5c0.704-1.249,1.417-2.642,1.839-4.39
				c0.176-0.761,0.361-1.794,0.197-2.996c-0.154-1.277-0.78-2.556-1.691-3.431c-1.864-1.702-3.848-1.875-5.435-2.01l-1.007-0.023
				l-0.216,0.012c-0.318,0.012-0.68,0.03-1.172,0.113c-0.886,0.134-1.544,0.326-2.337,0.603c-2.82,1.049-4.852,2.619-6.319,3.879
				c-2.357,2.076-3.758,3.87-4.292,4.571h-0.095c-0.205,0.308-0.415,0.614-0.647,0.907l0.036,0.03
				c-0.624,0.855-1.813,2.58-3.006,5.119c-0.802,1.771-1.742,4.191-1.903,7.189c-0.059,0.692-0.009,1.438,0.153,2.309
				c-0.529,0.158-1.101,0.302-1.675,0.376c-0.228,0.027-0.461,0.043-0.701,0.043c-0.958,0-1.632-0.266-2.178-0.865l-2.296-2.495
				l0.937,3.261c0.541,1.877,2.401,2.963,3.964,3.353c1.066,0.27,2.247,0.373,3.505,0.326c0.67,1.127,1.402,2.008,2.209,2.674
				c2.189,1.896,5.11,3.129,8.678,3.665c1.41,0.211,2.91,0.317,4.444,0.317c1.186,0,2.401-0.06,3.715-0.185
				c4.691-0.459,8.375-1.496,10.738-2.24c3.329-1.069,6.041-2.377,8.537-4.126c2.028-1.473,4.316-3.379,5.927-6.375l1.703-3.171
				L305.578,88.953z M267.879,85.124c1.125-2.416,2.295-3.979,2.682-4.494c0.034-0.046,0.082-0.109,0.128-0.18
				c0.051-0.06,0.098-0.122,0.145-0.185c0.389-0.51,1.567-2.061,3.606-3.844c1.53-1.332,3.053-2.28,4.52-2.818
				c0.404-0.146,0.896-0.278,1.276-0.337c0.003,0,0.14-0.032,0.598-0.047l0.148-0.009l0.5,0.021c0.92,0.03,1.591,0.281,1.719,0.372
				c0,0.001,0.129,0.282-0.066,1.064c-0.184,0.792-0.602,1.758-1.238,2.871c-1.029,1.786-2.405,3.626-4.091,5.471
				c-0.744,0.807-1.464,1.518-2.125,2.098l-0.486,0.408l-1.469,0.948c-1.454,0.847-2.685,1.469-3.478,1.86
				c-1.428,0.69-2.643,1.261-3.742,1.754C266.59,88.582,267.066,86.873,267.879,85.124"/>
			<path clip-path="url(#SVGID_4_)" d="M266.002,63.489l7.154-4.835c2.155-1.462,4.232-2.964,6.915-4.631
				c-3.155-0.158-5.867,0.011-8.633,0.655c-2.756,0.661-5.589,1.801-8.779,3.943c-1.244,0.838-3.37,2.391-5.744,4.6l4.75-14.508
				l-9.962,11.981c-0.831,1.003-1.63,2.301-2.356,3.771c-1.176,1.072-2.643,1.716-4.253,2.158c-1.136,0.286-2.35,0.486-3.681,0.522
				c-0.646-1.915-1.554-3.637-2.628-5.411c-0.842-0.79-1.715-1.487-2.642-2.025c-2.636-1.453-5.332-2.343-8.548-2.47
				c-0.833-0.005-1.689,0.02-2.785,0.333c-0.51,0.141-1.189,0.415-1.88,0.956c-0.718,0.565-1.46,1.655-1.559,2.797
				c-0.017,0.192,0.02,0.336,0.023,0.51c-0.082,0.046-0.171,0.087-0.251,0.133c-2.025,1.159-3.857,2.509-5.563,3.948
				c-3.402,2.901-6.332,6.152-8.88,9.886c-1.621,2.45-3.157,5.099-4.269,8.157c-2.02,4.635-2.646,9.755-0.199,13.874
				c0.071,0.152,0.133,0.306,0.212,0.455c1.434,2.714,4.495,5.724,8.386,6.406c2.389,0.501,5.478,0.204,8.459-1.002
				c3.008-1.187,6.018-3.133,8.897-5.671c2.885-2.541,5.671-5.669,8.153-9.379c2.451-3.727,4.715-8.001,5.807-13.165
				c0.317-1.625,0.492-3.383,0.369-5.209c0.876,0.321,1.787,0.557,2.756,0.68c0.553,0.063,1.132,0.075,1.723,0.054
				c-0.478,1.773-0.892,3.582-1.332,5.358c-0.31,1.248-0.676,2.546-1.052,3.841c-4.852,9.912-6.644,19.548-6.707,19.508
				l-0.471,2.119l5.716,1.472c0.529-1.742,1.445-4.514,2.627-7.859c1.17-3.347,2.605-7.275,3.893-11.401
				c0.179-0.577,0.338-1.143,0.509-1.714c2.28-4.601,5.301-9.023,8.343-12.302C261.549,66.716,264.502,64.524,266.002,63.489
				 M236.192,74.289c-0.819,3.955-2.746,7.749-4.899,10.988c-2.174,3.255-4.643,6.027-7.111,8.199
				c-2.458,2.181-4.942,3.746-7.103,4.594c-2.172,0.87-3.93,0.944-5.089,0.713c-0.945-0.183-1.761-0.564-2.499-1.159
				c-0.376-0.278-0.727-0.67-0.984-0.94c-0.438-0.543-0.678-0.843-0.9-1.241c-0.902-1.539-1.143-3.552-0.988-5.589
				c0.369-4.123,2.004-8.133,3.87-11.781c1.915-3.662,4.181-7.096,6.898-10.349c1.276-1.522,2.682-2.995,4.245-4.369
				c0.051,0.146,0.091,0.328,0.15,0.449c0.121,0.262,0.27,0.598,0.406,0.782l0.211,0.324l0.107,0.16l0.052,0.079l0.232,0.283
				l0.633,0.705c0.367,0.345,0.752,0.697,1.135,1.001c2.929,2.212,6.477,2.49,9.335,2.207c0.799-0.082,1.578-0.208,2.337-0.361
				C236.622,70.571,236.568,72.437,236.192,74.289"/>
		</g>
	</g>
</g>
</svg>
